<svg xmlns="http://www.w3.org/2000/svg" viewBox="0 0 200 200" width="200" height="200" role="img" aria-label="Appraisal Canada">
  <!-- Badge -->
  <rect x="6" y="6" width="188" height="188" rx="40" fill="#ffffff"/>
  <rect x="6" y="6" width="188" height="188" rx="40" fill="none" stroke="#0f3460" stroke-width="6"/>

  <!-- Roof -->
  <path d="M100 40 L170 100 L30 100 Z" fill="#0f3460"/>
  <!-- Chimney -->
  <rect x="132" y="60" width="14" height="26" rx="2" fill="#0f3460"/>
  <!-- Gold eave band under the roof -->
  <rect x="42" y="99" width="116" height="9" rx="4.5" fill="#f5a623"/>

  <!-- House body -->
  <rect x="54" y="108" width="92" height="58" rx="8" fill="#0f3460"/>

  <!-- Canadian flag inset -->
  <g>
    <rect x="66" y="120" width="68" height="34" rx="3" fill="#ffffff" stroke="#0f3460" stroke-width="1.5"/>
    <rect x="66" y="120" width="17" height="34" rx="3" fill="#d52b1e"/>
    <rect x="72" y="120" width="11" height="34" fill="#d52b1e"/>
    <rect x="117" y="120" width="17" height="34" rx="3" fill="#d52b1e"/>
    <rect x="117" y="120" width="11" height="34" fill="#d52b1e"/>
    <!-- Maple leaf centered in the white band -->
    <g transform="translate(88.5,122.5) scale(0.235)" fill="#d52b1e">
      <path d="M50,3.4l-6.1,11.6c-0.7,1.3-1.9,1.2-3.2,0.5l-4.4-2.3l3.3,17.5c0.7,3.2-1.5,3.2-2.6,1.8l-7.7-8.6l-1.2,4.4c-0.1,0.6-0.8,1.2-1.8,1l-9.7-2l2.5,9.3c0.5,2,1,2.9-0.5,3.4l-3.4,1.6l16.5,13.4c0.7,0.5,1,1.5,0.7,2.3l-1.4,4.7c5.7-0.7,10.8-1.6,16.5-2.3c0.5,0,1.3,0.8,1.3,1.4l-0.8,17.6h4.9l-0.5-17.5c0-0.6,0.7-1.4,1.3-1.4c5.7,0.7,10.8,1.6,16.5,2.3l-1.4-4.7c-0.3-0.8,0-1.8,0.7-2.3l16.5-13.4l-3.4-1.6c-1.5-0.5-1-1.4-0.5-3.4l2.5-9.3l-9.7,2c-1,0.2-1.7-0.4-1.8-1l-1.2-4.4l-7.7,8.6c-1.1,1.4-3.3,1.4-2.6-1.8l3.3-17.5l-4.4,2.3c-1.3,0.7-2.5,0.8-3.2-0.5z"/>
    </g>
  </g>
</svg>
