<svg xmlns="http://www.w3.org/2000/svg" viewBox="0 0 200 200" width="200" height="200" role="img" aria-label="Appraisal Canada">
  <!-- Badge -->
  <rect x="5" y="5" width="190" height="190" rx="38" fill="#ffffff" stroke="#0f3460" stroke-width="5"/>

  <!-- House roof -->
  <path d="M100 38 L165 96 L35 96 Z" fill="#0f3460"/>
  <!-- Roof gold trim -->
  <path d="M100 38 L165 96 L35 96 Z" fill="none" stroke="#ffb703" stroke-width="6" stroke-linejoin="round"/>

  <!-- House body -->
  <rect x="55" y="94" width="90" height="66" rx="6" fill="#0f3460"/>

  <!-- Maple leaf crest (Canada red) -->
  <g transform="translate(70,98) scale(0.60)" fill="#d52b1e" stroke="#ffffff" stroke-width="2.2" stroke-linejoin="round">
    <path d="M50,3.4l-6.1,11.6c-0.7,1.3-1.9,1.2-3.2,0.5l-4.4-2.3l3.3,17.5c0.7,3.2-1.5,3.2-2.6,1.8l-7.7-8.6l-1.2,4.4c-0.1,0.6-0.8,1.2-1.8,1l-9.7-2l2.5,9.3c0.5,2,1,2.9-0.5,3.4l-3.4,1.6l16.5,13.4c0.7,0.5,1,1.5,0.7,2.3l-1.4,4.7c5.7-0.7,10.8-1.6,16.5-2.3c0.5,0,1.3,0.8,1.3,1.4l-0.8,17.6h4.9l-0.5-17.5c0-0.6,0.7-1.4,1.3-1.4c5.7,0.7,10.8,1.6,16.5,2.3l-1.4-4.7c-0.3-0.8,0-1.8,0.7-2.3l16.5-13.4l-3.4-1.6c-1.5-0.5-1-1.4-0.5-3.4l2.5-9.3l-9.7,2c-1,0.2-1.7-0.4-1.8-1l-1.2-4.4l-7.7,8.6c-1.1,1.4-3.3,1.4-2.6-1.8l3.3-17.5l-4.4,2.3c-1.3,0.7-2.5,0.8-3.2-0.5z"/>
  </g>
</svg>
