<svg xmlns="http://www.w3.org/2000/svg" viewBox="0 0 1200 630" width="1200" height="630">
  <defs>
    <linearGradient id="bg" x1="0" y1="0" x2="1" y2="1">
      <stop offset="0" stop-color="#0a2647"/>
      <stop offset="0.5" stop-color="#0f3460"/>
      <stop offset="1" stop-color="#12335a"/>
    </linearGradient>
    <linearGradient id="gold" x1="0" y1="0" x2="1" y2="1">
      <stop offset="0" stop-color="#f7d488"/>
      <stop offset="0.5" stop-color="#d9a441"/>
      <stop offset="1" stop-color="#a9761f"/>
    </linearGradient>
  </defs>

  <rect width="1200" height="630" fill="url(#bg)"/>
  <!-- gold frame -->
  <rect x="26" y="26" width="1148" height="578" rx="22" fill="none" stroke="#d9a441" stroke-width="3" opacity="0.7"/>

  <!-- Emblem badge -->
  <g transform="translate(90,120)">
    <rect x="0" y="0" width="180" height="180" rx="40" fill="#ffffff"/>
    <path d="M131 43 A65 65 0 1 0 131 137" fill="none" stroke="#0f3460" stroke-width="13.5" stroke-linecap="round"/>
    <path d="M90 45 L138.6 95.4 L41.4 95.4 Z" fill="url(#gold)"/>
    <path d="M90 45 L138.6 95.4 L41.4 95.4 Z" fill="none" stroke="#0f3460" stroke-width="3.2" stroke-linejoin="round"/>
    <rect x="57.6" y="93.6" width="64.8" height="48.6" rx="6.3" fill="#0f3460"/>
    <g transform="translate(73.4,99) scale(0.333)" fill="#d52b1e" stroke="#ffffff" stroke-width="2" stroke-linejoin="round">
      <path d="M50,3.4l-6.1,11.6c-0.7,1.3-1.9,1.2-3.2,0.5l-4.4-2.3l3.3,17.5c0.7,3.2-1.5,3.2-2.6,1.8l-7.7-8.6l-1.2,4.4c-0.1,0.6-0.8,1.2-1.8,1l-9.7-2l2.5,9.3c0.5,2,1,2.9-0.5,3.4l-3.4,1.6l16.5,13.4c0.7,0.5,1,1.5,0.7,2.3l-1.4,4.7c5.7-0.7,10.8-1.6,16.5-2.3c0.5,0,1.3,0.8,1.3,1.4l-0.8,17.6h4.9l-0.5-17.5c0-0.6,0.7-1.4,1.3-1.4c5.7,0.7,10.8,1.6,16.5,2.3l-1.4-4.7c-0.3-0.8,0-1.8,0.7-2.3l16.5-13.4l-3.4-1.6c-1.5-0.5-1-1.4-0.5-3.4l2.5-9.3l-9.7,2c-1,0.2-1.7-0.4-1.8-1l-1.2-4.4l-7.7,8.6c-1.1,1.4-3.3,1.4-2.6-1.8l3.3-17.5l-4.4,2.3c-1.3,0.7-2.5,0.8-3.2-0.5z"/>
    </g>
  </g>

  <!-- Wordmark -->
  <text x="300" y="175" font-family="Arial, sans-serif" font-size="62" font-weight="800" letter-spacing="4" fill="#d9a441">APPRAISAL</text>
  <text x="300" y="245" font-family="Arial, sans-serif" font-size="62" font-weight="800" letter-spacing="4" fill="#ffffff">CANADA</text>
  <line x1="302" y1="278" x2="700" y2="278" stroke="#d9a441" stroke-width="2" opacity="0.8"/>
  <text x="302" y="305" font-family="Arial, sans-serif" font-size="20" font-weight="700" letter-spacing="3" fill="#cdd8e8">REAL ESTATE APPRAISALS ACROSS CANADA</text>

  <!-- Headline -->
  <text x="90" y="410" font-family="Arial, sans-serif" font-size="52" font-weight="800" fill="#ffffff">Free Real Estate Appraisal Quotes</text>
  <text x="90" y="470" font-family="Arial, sans-serif" font-size="52" font-weight="800" fill="#ffffff">Anywhere in <tspan fill="#f5c76a">Canada</tspan></text>

  <!-- Sub -->
  <text x="90" y="528" font-family="Arial, sans-serif" font-size="26" fill="#d7e3f4">AACI &amp; CRA appraisers  ·  Residential · Commercial · Equipment  ·  Bilingual</text>

  <!-- URL pill -->
  <rect x="90" y="552" width="300" height="46" rx="23" fill="#f5a623"/>
  <text x="240" y="583" font-family="Arial, sans-serif" font-size="24" font-weight="800" fill="#0a2647" text-anchor="middle">appraisalcanada.ca</text>
</svg>
